<svg width="75" height="75" viewBox="0 0 75 75" fill="none" xmlns="http://www.w3.org/2000/svg">
<circle cx="37.5" cy="37.5" r="37.5" fill="#3498DB"/>
<path d="M18.696 37.032C18.696 33.3413 19.3573 30.4507 20.68 28.36C22.024 26.2693 24.2427 25.224 27.336 25.224C30.4293 25.224 32.6373 26.2693 33.96 28.36C35.304 30.4507 35.976 33.3413 35.976 37.032C35.976 40.744 35.304 43.656 33.96 45.768C32.6373 47.88 30.4293 48.936 27.336 48.936C24.2427 48.936 22.024 47.88 20.68 45.768C19.3573 43.656 18.696 40.744 18.696 37.032ZM31.56 37.032C31.56 35.4533 31.4533 34.1307 31.24 33.064C31.048 31.976 30.6427 31.0907 30.024 30.408C29.4267 29.7253 28.5307 29.384 27.336 29.384C26.1413 29.384 25.2347 29.7253 24.616 30.408C24.0187 31.0907 23.6133 31.976 23.4 33.064C23.208 34.1307 23.112 35.4533 23.112 37.032C23.112 38.6533 23.208 40.0187 23.4 41.128C23.592 42.216 23.9973 43.1013 24.616 43.784C25.2347 44.4453 26.1413 44.776 27.336 44.776C28.5307 44.776 29.4373 44.4453 30.056 43.784C30.6747 43.1013 31.08 42.216 31.272 41.128C31.464 40.0187 31.56 38.6533 31.56 37.032ZM39.1915 44.456V40.936L49.6555 25.96H54.8715V40.552H57.6875V44.456H54.8715V49H50.3915V44.456H39.1915ZM50.6795 30.76L44.1195 40.552H50.6795V30.76Z" fill="white"/>
</svg>
