<svg width="75" height="75" viewBox="0 0 75 75" fill="none" xmlns="http://www.w3.org/2000/svg">
<circle cx="37.5" cy="37.5" r="37.5" fill="#E74843"/>
<path d="M18.696 37.032C18.696 33.3413 19.3573 30.4507 20.68 28.36C22.024 26.2693 24.2427 25.224 27.336 25.224C30.4293 25.224 32.6373 26.2693 33.96 28.36C35.304 30.4507 35.976 33.3413 35.976 37.032C35.976 40.744 35.304 43.656 33.96 45.768C32.6373 47.88 30.4293 48.936 27.336 48.936C24.2427 48.936 22.024 47.88 20.68 45.768C19.3573 43.656 18.696 40.744 18.696 37.032ZM31.56 37.032C31.56 35.4533 31.4533 34.1307 31.24 33.064C31.048 31.976 30.6427 31.0907 30.024 30.408C29.4267 29.7253 28.5307 29.384 27.336 29.384C26.1413 29.384 25.2347 29.7253 24.616 30.408C24.0187 31.0907 23.6133 31.976 23.4 33.064C23.208 34.1307 23.112 35.4533 23.112 37.032C23.112 38.6533 23.208 40.0187 23.4 41.128C23.592 42.216 23.9973 43.1013 24.616 43.784C25.2347 44.4453 26.1413 44.776 27.336 44.776C28.5307 44.776 29.4373 44.4453 30.056 43.784C30.6747 43.1013 31.08 42.216 31.272 41.128C31.464 40.0187 31.56 38.6533 31.56 37.032ZM40.7915 43.944C42.8395 42.2373 44.4715 40.8187 45.6875 39.688C46.9035 38.536 47.9168 37.3413 48.7275 36.104C49.5382 34.8667 49.9435 33.6507 49.9435 32.456C49.9435 31.368 49.6875 30.5147 49.1755 29.896C48.6635 29.2773 47.8742 28.968 46.8075 28.968C45.7408 28.968 44.9195 29.3307 44.3435 30.056C43.7675 30.76 43.4688 31.7307 43.4475 32.968H39.0955C39.1808 30.408 39.9382 28.4667 41.3675 27.144C42.8182 25.8213 44.6528 25.16 46.8715 25.16C49.3035 25.16 51.1702 25.8107 52.4715 27.112C53.7728 28.392 54.4235 30.088 54.4235 32.2C54.4235 33.864 53.9755 35.4533 53.0795 36.968C52.1835 38.4827 51.1595 39.8053 50.0075 40.936C48.8555 42.0453 47.3515 43.3893 45.4955 44.968H54.9355V48.68H39.1275V45.352L40.7915 43.944Z" fill="white"/>
</svg>
