<svg width="75" height="75" viewBox="0 0 75 75" fill="none" xmlns="http://www.w3.org/2000/svg">
<circle cx="37.5" cy="37.5" r="37.5" fill="#3498DB"/>
<path d="M22.696 37.032C22.696 33.3413 23.3573 30.4507 24.68 28.36C26.024 26.2693 28.2427 25.224 31.336 25.224C34.4293 25.224 36.6373 26.2693 37.96 28.36C39.304 30.4507 39.976 33.3413 39.976 37.032C39.976 40.744 39.304 43.656 37.96 45.768C36.6373 47.88 34.4293 48.936 31.336 48.936C28.2427 48.936 26.024 47.88 24.68 45.768C23.3573 43.656 22.696 40.744 22.696 37.032ZM35.56 37.032C35.56 35.4533 35.4533 34.1307 35.24 33.064C35.048 31.976 34.6427 31.0907 34.024 30.408C33.4267 29.7253 32.5307 29.384 31.336 29.384C30.1413 29.384 29.2347 29.7253 28.616 30.408C28.0187 31.0907 27.6133 31.976 27.4 33.064C27.208 34.1307 27.112 35.4533 27.112 37.032C27.112 38.6533 27.208 40.0187 27.4 41.128C27.592 42.216 27.9973 43.1013 28.616 43.784C29.2347 44.4453 30.1413 44.776 31.336 44.776C32.5307 44.776 33.4373 44.4453 34.056 43.784C34.6747 43.1013 35.08 42.216 35.272 41.128C35.464 40.0187 35.56 38.6533 35.56 37.032ZM42.8395 29.8V25.672H50.5515V49H45.9435V29.8H42.8395Z" fill="white"/>
</svg>
