<svg width="75" height="75" viewBox="0 0 75 75" fill="none" xmlns="http://www.w3.org/2000/svg">
<circle cx="37.5" cy="37.5" r="37.5" fill="#3498DB"/>
<path d="M18.696 37.032C18.696 33.3413 19.3573 30.4507 20.68 28.36C22.024 26.2693 24.2427 25.224 27.336 25.224C30.4293 25.224 32.6373 26.2693 33.96 28.36C35.304 30.4507 35.976 33.3413 35.976 37.032C35.976 40.744 35.304 43.656 33.96 45.768C32.6373 47.88 30.4293 48.936 27.336 48.936C24.2427 48.936 22.024 47.88 20.68 45.768C19.3573 43.656 18.696 40.744 18.696 37.032ZM31.56 37.032C31.56 35.4533 31.4533 34.1307 31.24 33.064C31.048 31.976 30.6427 31.0907 30.024 30.408C29.4267 29.7253 28.5307 29.384 27.336 29.384C26.1413 29.384 25.2347 29.7253 24.616 30.408C24.0187 31.0907 23.6133 31.976 23.4 33.064C23.208 34.1307 23.112 35.4533 23.112 37.032C23.112 38.6533 23.208 40.0187 23.4 41.128C23.592 42.216 23.9973 43.1013 24.616 43.784C25.2347 44.4453 26.1413 44.776 27.336 44.776C28.5307 44.776 29.4373 44.4453 30.056 43.784C30.6747 43.1013 31.08 42.216 31.272 41.128C31.464 40.0187 31.56 38.6533 31.56 37.032ZM39.4475 31.816C39.5542 29.6827 40.3008 28.04 41.6875 26.888C43.0955 25.7147 44.9408 25.128 47.2235 25.128C48.7808 25.128 50.1142 25.4053 51.2235 25.96C52.3328 26.4933 53.1648 27.2293 53.7195 28.168C54.2955 29.0853 54.5835 30.1307 54.5835 31.304C54.5835 32.648 54.2315 33.7893 53.5275 34.728C52.8448 35.6453 52.0235 36.264 51.0635 36.584V36.712C52.3008 37.096 53.2608 37.7787 53.9435 38.76C54.6475 39.7413 54.9995 41 54.9995 42.536C54.9995 43.816 54.7008 44.9573 54.1035 45.96C53.5275 46.9627 52.6635 47.752 51.5115 48.328C50.3808 48.8827 49.0155 49.16 47.4155 49.16C45.0048 49.16 43.0422 48.552 41.5275 47.336C40.0128 46.12 39.2128 44.328 39.1275 41.96H43.4795C43.5222 43.0053 43.8742 43.848 44.5355 44.488C45.2182 45.1067 46.1462 45.416 47.3195 45.416C48.4075 45.416 49.2395 45.1173 49.8155 44.52C50.4128 43.9013 50.7115 43.112 50.7115 42.152C50.7115 40.872 50.3062 39.9547 49.4955 39.4C48.6848 38.8453 47.4262 38.568 45.7195 38.568H44.7915V34.888H45.7195C48.7488 34.888 50.2635 33.8747 50.2635 31.848C50.2635 30.9307 49.9862 30.216 49.4315 29.704C48.8982 29.192 48.1195 28.936 47.0955 28.936C46.0928 28.936 45.3142 29.2133 44.7595 29.768C44.2262 30.3013 43.9168 30.984 43.8315 31.816H39.4475Z" fill="white"/>
</svg>
